<svg xmlns="http://www.w3.org/2000/svg" fill="none" viewBox="0 0 22 16" class="design-iconfont">
  <rect width="22" height="16" rx="2" fill="url(#dkcm9812r__paint0_linear_7178_53113)"/>
  <path d="M6.37384 10.6107L5.81766 11.7422C5.52103 12.2336 5.10575 12.4792 4.57182 12.4792H3.20361C3.20361 12.4792 3.35934 12.1886 3.6708 11.6073C3.98227 11.0329 4.36418 10.3235 4.81653 9.47924C5.27631 8.62803 5.73979 7.7699 6.20698 6.90484C6.67418 6.03287 7.07833 5.28201 7.41946 4.65225C7.90148 3.88408 8.56519 3.5 9.41058 3.5H10.4784C10.4859 3.52768 10.5637 3.83564 10.712 4.42388C10.8604 5.01211 11.042 5.74221 11.2571 6.61419C11.4796 7.48616 11.702 8.36159 11.9245 9.24048C12.147 10.1194 12.3361 10.8633 12.4918 11.4723C12.5511 11.7353 12.4918 11.9671 12.3138 12.1678C12.1433 12.3754 11.9171 12.4792 11.6353 12.4792H10.4896L10.1114 10.6107H6.37384ZM9.0435 5.1609L7.04125 9.14706H9.85552L9.05463 5.1609H9.0435Z" fill="#fff"/>
  <path d="M15.9578 3.51038H17.2036L17.059 4.47578C17.0293 4.61419 16.9626 4.72837 16.8588 4.81834C16.755 4.90138 16.6326 4.94291 16.4917 4.94291H15.1457L15.2792 4.05017C15.3015 3.891 15.3756 3.76298 15.5017 3.66609C15.6352 3.56228 15.7872 3.51038 15.9578 3.51038ZM14.8899 6.26125C14.927 6.06747 15.0197 5.9083 15.168 5.78374C15.3237 5.65917 15.5054 5.59689 15.7131 5.59689H16.8365L16.0356 11.026C15.9689 11.4619 15.765 11.8149 15.4238 12.0848C15.0827 12.3616 14.686 12.5 14.2336 12.5H13.9778L14.8899 6.26125Z" fill="#fff"/>
  <defs>
    <linearGradient id="dkcm9812r__paint0_linear_7178_53113" x1=".961186" y1="9.85937" x2="23.8377" y2="7.94744" gradientUnits="userSpaceOnUse">
      <stop stop-color="#F46C9A"/>
      <stop offset="1" stop-color="#FD9776"/>
    </linearGradient>
  </defs>
</svg>
