<svg width="18" height="18" viewBox="0 0 18 18" fill="none" xmlns="http://www.w3.org/2000/svg">
<path d="M4.076 12.1424L3.36092 13.5971C2.97953 14.2289 2.4456 14.5447 1.75912 14.5447H0C0 14.5447 0.200225 14.171 0.600674 13.4236C1.00112 12.6851 1.49215 11.7731 2.07376 10.6876C2.6649 9.59318 3.2608 8.48987 3.86148 7.37766C4.46215 6.25655 4.98178 5.29115 5.42037 4.48146C6.04011 3.49382 6.89345 3 7.98039 3H9.35336C9.36289 3.03559 9.463 3.43154 9.65369 4.18784C9.84438 4.94414 10.078 5.88285 10.3545 7.00395C10.6405 8.12506 10.9265 9.25062 11.2126 10.3806C11.4986 11.5106 11.7418 12.4671 11.942 13.2501C12.0183 13.5882 11.942 13.8863 11.7131 14.1443C11.4939 14.4113 11.2031 14.5447 10.8407 14.5447H9.36766L8.8814 12.1424H4.076ZM7.50843 5.13544L4.93411 10.2605H8.55246L7.52273 5.13544H7.50843Z" fill="white"/>
<path d="M16.3982 3.01335H18L17.8141 4.25457C17.7759 4.43253 17.6901 4.57934 17.5566 4.69501C17.4232 4.80178 17.2658 4.85517 17.0847 4.85517H15.3542L15.5258 3.70737C15.5544 3.50272 15.6497 3.33811 15.8118 3.21354C15.9835 3.08008 16.1789 3.01335 16.3982 3.01335ZM15.0252 6.55017C15.0729 6.30104 15.1921 6.09639 15.3828 5.93623C15.583 5.77608 15.8166 5.696 16.0836 5.696H17.528L16.4983 12.6762C16.4125 13.2368 16.1503 13.6906 15.7117 14.0376C15.2731 14.3935 14.763 14.5714 14.1814 14.5714H13.8525L15.0252 6.55017Z" fill="white"/>
</svg>
