<svg width="90" height="16" viewBox="0 0 90 16" fill="none" xmlns="http://www.w3.org/2000/svg">
<path d="M1.365 3.159H4.849V4.082C4.71033 4.68867 4.56733 5.239 4.42 5.733C4.28133 6.21833 4.11233 6.72533 3.913 7.254C4.00833 7.45333 4.10367 7.64833 4.199 7.839C4.303 8.02967 4.394 8.242 4.472 8.476C4.55 8.70133 4.61067 8.96133 4.654 9.256C4.706 9.542 4.732 9.88 4.732 10.27C4.732 10.53 4.71467 10.7597 4.68 10.959C4.654 11.1583 4.602 11.3317 4.524 11.479C4.446 11.6177 4.33333 11.7303 4.186 11.817C4.04733 11.9037 3.861 11.9643 3.627 11.999L2.886 12.103L2.548 11.193L3.159 11.115C3.419 11.0803 3.601 11.011 3.705 10.907C3.809 10.7943 3.861 10.5777 3.861 10.257C3.861 9.91033 3.835 9.59833 3.783 9.321C3.731 9.04367 3.66167 8.79233 3.575 8.567C3.497 8.34167 3.40167 8.13367 3.289 7.943C3.17633 7.74367 3.05933 7.553 2.938 7.371C3.15467 6.851 3.354 6.30933 3.536 5.746C3.718 5.174 3.86967 4.61933 3.991 4.082H2.288V14.274H1.365V3.159ZM12.22 4.316H11.141V12.844C11.141 13.078 11.115 13.2687 11.063 13.416C11.0197 13.572 10.9373 13.6977 10.816 13.793C10.7033 13.8883 10.5473 13.9577 10.348 14.001C10.1573 14.053 9.919 14.092 9.633 14.118L8.736 14.196L8.411 13.247L9.516 13.169C9.65467 13.1603 9.763 13.143 9.841 13.117C9.92767 13.091 9.99267 13.052 10.036 13C10.088 12.9393 10.1227 12.8613 10.14 12.766C10.1573 12.6707 10.166 12.545 10.166 12.389V4.316H5.291V3.393H12.22V4.316ZM8.866 11.076H5.447V6.084H8.866V11.076ZM7.982 6.955H6.331V10.205H7.982V6.955ZM24.9779 12.922V13.806H13.4339V12.922H18.6989V11.297H14.5519V10.4H18.6989V8.957H14.7209V3.185H23.5739V8.957H19.6739V10.4H23.8469V11.297H19.6739V12.922H24.9779ZM15.6439 4.056V5.655H18.6989V4.056H15.6439ZM22.5989 4.056H19.6739V5.655H22.5989V4.056ZM18.6989 8.086V6.487H15.6439V8.086H18.6989ZM22.5989 8.086V6.487H19.6739V8.086H22.5989ZM37.4628 11.323C37.4541 11.4183 37.4411 11.5223 37.4238 11.635C37.4064 11.7303 37.3891 11.8473 37.3718 11.986C37.3631 12.1247 37.3458 12.272 37.3198 12.428C37.2678 12.7313 37.2028 12.974 37.1248 13.156C37.0468 13.338 36.9471 13.4767 36.8258 13.572C36.7131 13.676 36.5701 13.7453 36.3968 13.78C36.2321 13.8147 36.0328 13.8363 35.7988 13.845C35.3914 13.8623 34.8844 13.8753 34.2778 13.884C33.6711 13.9013 33.0341 13.91 32.3668 13.91C31.7081 13.9187 31.0581 13.9187 30.4168 13.91C29.7841 13.9013 29.2338 13.884 28.7658 13.858C28.5058 13.8493 28.2891 13.8017 28.1158 13.715C27.9424 13.6283 27.8038 13.52 27.6998 13.39C27.5958 13.2687 27.5221 13.1343 27.4788 12.987C27.4441 12.8397 27.4268 12.6967 27.4268 12.558V3.315H36.4488V8.645H28.4278V12.415C28.4278 12.6663 28.5881 12.805 28.9088 12.831C29.1861 12.8483 29.5111 12.8657 29.8838 12.883C30.2651 12.8917 30.6681 12.9003 31.0928 12.909C31.5261 12.909 31.9681 12.909 32.4188 12.909C32.8694 12.909 33.2984 12.9047 33.7058 12.896C34.1218 12.8873 34.5031 12.8787 34.8498 12.87C35.1964 12.8527 35.4868 12.8353 35.7208 12.818C35.9721 12.8007 36.1368 12.7313 36.2148 12.61C36.2928 12.48 36.3491 12.3197 36.3838 12.129C36.4098 11.973 36.4271 11.8257 36.4358 11.687C36.4531 11.5397 36.4704 11.4097 36.4878 11.297C36.4964 11.167 36.5051 11.0457 36.5138 10.933L37.4628 11.323ZM28.4278 7.709H31.4958V4.225H28.4278V7.709ZM35.4348 4.225H32.4838V7.709H35.4348V4.225ZM50.2596 11.323C50.251 11.4183 50.238 11.5223 50.2206 11.635C50.2033 11.7303 50.186 11.8473 50.1686 11.986C50.16 12.1247 50.1426 12.272 50.1166 12.428C50.0646 12.7313 49.9996 12.974 49.9216 13.156C49.8436 13.338 49.744 13.4767 49.6226 13.572C49.51 13.676 49.367 13.7453 49.1936 13.78C49.029 13.8147 48.8296 13.8363 48.5956 13.845C48.1883 13.8623 47.6813 13.8753 47.0746 13.884C46.468 13.9013 45.831 13.91 45.1636 13.91C44.505 13.9187 43.855 13.9187 43.2136 13.91C42.581 13.9013 42.0306 13.884 41.5626 13.858C41.3026 13.8493 41.086 13.8017 40.9126 13.715C40.7393 13.6283 40.6006 13.52 40.4966 13.39C40.3926 13.2687 40.319 13.1343 40.2756 12.987C40.241 12.8397 40.2236 12.6967 40.2236 12.558V3.315H49.2456V8.645H41.2246V12.415C41.2246 12.6663 41.385 12.805 41.7056 12.831C41.983 12.8483 42.308 12.8657 42.6806 12.883C43.062 12.8917 43.465 12.9003 43.8896 12.909C44.323 12.909 44.765 12.909 45.2156 12.909C45.6663 12.909 46.0953 12.9047 46.5026 12.896C46.9186 12.8873 47.3 12.8787 47.6466 12.87C47.9933 12.8527 48.2836 12.8353 48.5176 12.818C48.769 12.8007 48.9336 12.7313 49.0116 12.61C49.0896 12.48 49.146 12.3197 49.1806 12.129C49.2066 11.973 49.224 11.8257 49.2326 11.687C49.25 11.5397 49.2673 11.4097 49.2846 11.297C49.2933 11.167 49.302 11.0457 49.3106 10.933L50.2596 11.323ZM41.2246 7.709H44.2926V4.225H41.2246V7.709ZM48.2316 4.225H45.2806V7.709H48.2316V4.225ZM63.3035 7.254V8.086H51.8765V7.254H55.8545V4.745H52.4745V3.913H55.5165C55.3778 3.705 55.2305 3.50567 55.0745 3.315C54.9185 3.12433 54.7798 2.95967 54.6585 2.821L55.3735 2.34C55.5208 2.51333 55.6898 2.717 55.8805 2.951C56.0798 3.185 56.2532 3.41033 56.4005 3.627L56.0235 3.913H58.6755C58.7708 3.80033 58.8705 3.67467 58.9745 3.536C59.0872 3.39733 59.1955 3.25867 59.2995 3.12C59.4035 2.97267 59.4988 2.834 59.5855 2.704C59.6808 2.56533 59.7588 2.444 59.8195 2.34L60.5605 2.795C60.4738 2.94233 60.3568 3.11567 60.2095 3.315C60.0708 3.51433 59.9278 3.71367 59.7805 3.913H62.7185V4.745H59.3385V7.254H63.3035ZM56.7645 7.254H58.4285V4.745H56.7645V7.254ZM54.5675 7.241C54.4808 7.10233 54.3725 6.94633 54.2425 6.773C54.1125 6.591 53.9738 6.41333 53.8265 6.24C53.6792 6.058 53.5318 5.89333 53.3845 5.746C53.2458 5.59 53.1202 5.46433 53.0075 5.369L53.6055 4.784C53.7182 4.888 53.8482 5.01367 53.9955 5.161C54.1428 5.30833 54.2902 5.46433 54.4375 5.629C54.5848 5.785 54.7235 5.94533 54.8535 6.11C54.9922 6.266 55.1048 6.40033 55.1915 6.513L54.5675 7.241ZM59.9365 6.591C60.0492 6.47833 60.1748 6.34833 60.3135 6.201C60.4608 6.045 60.6038 5.889 60.7425 5.733C60.8898 5.56833 61.0285 5.408 61.1585 5.252C61.2885 5.096 61.3968 4.95733 61.4835 4.836L62.1465 5.356C62.0512 5.47733 61.9342 5.62033 61.7955 5.785C61.6568 5.941 61.5138 6.10133 61.3665 6.266C61.2192 6.43067 61.0718 6.591 60.9245 6.747C60.7858 6.89433 60.6645 7.02 60.5605 7.124L59.9365 6.591ZM53.6575 9.074H61.5355V14.287H60.6255V13.702H54.5675V14.3H53.6575V9.074ZM54.5675 9.932V11.011H60.6255V9.932H54.5675ZM60.6255 12.87V11.817H54.5675V12.87H60.6255ZM69.9514 4.342H65.0374V3.562H69.9514V2.548L70.8224 2.587V3.562H75.7364V4.342H70.8224V5.083H74.6574V8.684H73.9944C74.107 8.79667 74.237 8.93533 74.3844 9.1C74.5317 9.26467 74.6834 9.44233 74.8394 9.633C74.9954 9.82367 75.147 10.023 75.2944 10.231C75.4504 10.4303 75.589 10.621 75.7104 10.803L75.0864 11.388C74.991 11.2233 74.8784 11.05 74.7484 10.868C74.6184 10.6773 74.484 10.4867 74.3454 10.296C74.1027 10.3047 73.73 10.3177 73.2274 10.335C72.7247 10.3437 72.1614 10.361 71.5374 10.387C70.922 10.4043 70.2807 10.426 69.6134 10.452C68.946 10.4693 68.322 10.4867 67.7414 10.504C67.1607 10.5213 66.658 10.5387 66.2334 10.556C65.8087 10.5733 65.5357 10.582 65.4144 10.582L65.3624 9.763C65.475 9.763 65.683 9.75867 65.9864 9.75C66.2897 9.74133 66.6494 9.73267 67.0654 9.724C67.4814 9.71533 67.9364 9.70667 68.4304 9.698C68.933 9.68933 69.44 9.67633 69.9514 9.659V8.684H66.0644V5.083H69.9514V4.342ZM67.0134 5.811V6.539H69.9514V5.811H67.0134ZM70.8224 5.811V6.539H73.7084V5.811H70.8224ZM69.9514 7.956V7.189H67.0134V7.956H69.9514ZM70.8224 7.956H73.7084V7.189H70.8224V7.956ZM73.7864 9.568C73.6997 9.47267 73.6174 9.386 73.5394 9.308C73.47 9.22133 73.405 9.14333 73.3444 9.074L73.9294 8.684H70.8224V9.646C71.4117 9.62867 71.962 9.61567 72.4734 9.607C72.9934 9.59833 73.431 9.58533 73.7864 9.568ZM70.3674 10.426C70.4454 10.504 70.5494 10.6123 70.6794 10.751C70.8094 10.881 70.9394 11.0197 71.0694 11.167C71.208 11.3143 71.3424 11.466 71.4724 11.622C71.6024 11.7693 71.7107 11.8993 71.7974 12.012L71.1604 12.61C71.0824 12.48 70.9784 12.3283 70.8484 12.155C70.7184 11.9817 70.584 11.8127 70.4454 11.648C70.3154 11.4833 70.1854 11.336 70.0554 11.206C69.934 11.0673 69.8387 10.9633 69.7694 10.894L70.3674 10.426ZM64.6344 13.507C64.773 13.3423 64.9204 13.1517 65.0764 12.935C65.2324 12.7183 65.3797 12.493 65.5184 12.259C65.6657 12.025 65.8 11.791 65.9214 11.557C66.0427 11.323 66.1467 11.102 66.2334 10.894L67.0394 11.271C66.9267 11.5223 66.801 11.778 66.6624 12.038C66.5324 12.2893 66.398 12.5363 66.2594 12.779C66.1207 13.013 65.982 13.234 65.8434 13.442C65.7047 13.65 65.5704 13.832 65.4404 13.988L64.6344 13.507ZM74.2804 10.894C74.4017 11.0327 74.536 11.1973 74.6834 11.388C74.8307 11.57 74.978 11.765 75.1254 11.973C75.2814 12.181 75.433 12.3977 75.5804 12.623C75.7364 12.8483 75.8794 13.065 76.0094 13.273L75.2424 13.832C74.991 13.3727 74.7224 12.9263 74.4364 12.493C74.159 12.0597 73.8817 11.6827 73.6044 11.362L74.2804 10.894ZM72.4994 12.519C72.5167 12.3977 72.5297 12.2763 72.5384 12.155C72.547 12.025 72.5557 11.895 72.5644 11.765L73.4484 12.09C73.431 12.22 73.4137 12.3543 73.3964 12.493C73.379 12.623 73.3617 12.753 73.3444 12.883C73.301 13.117 73.2447 13.3033 73.1754 13.442C73.1147 13.5807 73.028 13.689 72.9154 13.767C72.8027 13.845 72.6597 13.897 72.4864 13.923C72.313 13.9577 72.1007 13.9837 71.8494 14.001C71.4334 14.027 71.0087 14.04 70.5754 14.04C70.142 14.04 69.7174 14.027 69.3014 14.001C68.7554 13.9663 68.3697 13.8623 68.1444 13.689C67.919 13.5243 67.8064 13.234 67.8064 12.818V11.076L68.7944 11.128V12.48C68.7944 12.7573 68.8507 12.935 68.9634 13.013C69.076 13.0997 69.2927 13.156 69.6134 13.182C70.2807 13.234 70.9394 13.234 71.5894 13.182C71.754 13.1733 71.8927 13.156 72.0054 13.13C72.118 13.1127 72.2047 13.0823 72.2654 13.039C72.3347 12.9957 72.3867 12.935 72.4214 12.857C72.456 12.7703 72.482 12.6577 72.4994 12.519ZM85.5823 5.733C85.8249 6.331 86.0806 6.89 86.3493 7.41C86.6266 7.93 86.9213 8.41533 87.2333 8.866C87.5453 9.31667 87.8789 9.74133 88.2343 10.14C88.5983 10.53 88.9926 10.9027 89.4173 11.258L88.7283 12.09C88.2429 11.6393 87.8139 11.1843 87.4413 10.725C87.0686 10.257 86.7349 9.78467 86.4403 9.308C86.1456 8.82267 85.8813 8.32433 85.6473 7.813C85.4133 7.30167 85.1923 6.76433 84.9843 6.201V11.128H87.2463V12.025H84.9843V14.3H83.9963V12.025H81.8123L81.8383 11.128H83.9963V6.37C83.6583 7.436 83.1989 8.42833 82.6183 9.347C82.0376 10.257 81.3573 11.1323 80.5773 11.973L79.8493 11.271V14.196H78.9003V7.631C78.7356 7.90833 78.5579 8.19 78.3673 8.476C78.1853 8.762 77.9859 9.04367 77.7693 9.321L77.0413 8.671C77.8473 7.58767 78.4843 6.53033 78.9523 5.499C79.4203 4.459 79.7713 3.50133 80.0053 2.626L80.9283 2.912C80.8156 3.28467 80.6726 3.718 80.4993 4.212C80.3259 4.69733 80.1093 5.226 79.8493 5.798V11.245C80.5686 10.543 81.2489 9.72833 81.8903 8.801C82.5403 7.87367 83.0559 6.851 83.4373 5.733H80.8633V4.81H83.9963V2.6L84.9843 2.639V4.81H88.5073V5.733H85.5823Z" fill="#212930"/>
</svg>
