<svg width="29" height="16" viewBox="0 0 29 16" fill="none" xmlns="http://www.w3.org/2000/svg">
<path d="M4.26562 6.89648C5.19661 6.82031 5.66211 6.27865 5.66211 5.27148C5.66211 4.12891 4.99772 3.54069 3.66895 3.50684H2.85645V6.89648H4.26562ZM4.49414 2.98633C6.17839 2.99479 7.02051 3.72266 7.02051 5.16992C7.02051 6.05859 6.55924 6.71875 5.63672 7.15039C7.00781 7.36198 7.71029 8.13216 7.74414 9.46094C7.74414 11.1536 6.74967 12 4.76074 12H0.62207C1.23991 11.7122 1.54883 11.3314 1.54883 10.8574V4.12891C1.54883 3.65495 1.23991 3.27409 0.62207 2.98633H4.49414ZM2.85645 7.56934V10.6924C2.85645 11.2002 3.20345 11.4541 3.89746 11.4541H4.17676C5.58171 11.4456 6.28418 10.8066 6.28418 9.53711C6.28418 8.25911 5.70866 7.60319 4.55762 7.56934H2.85645ZM12.7588 8.12793C12.7249 6.95996 12.3441 6.36751 11.6162 6.35059C10.8968 6.35059 10.4271 6.94303 10.207 8.12793H12.7588ZM11.5146 12.0254C9.72038 11.9915 8.77669 10.9209 8.68359 8.81348C8.77669 6.78223 9.72038 5.76237 11.5146 5.75391C13.2327 5.75391 14.0918 6.75684 14.0918 8.7627H10.1689C10.1859 10.4639 10.736 11.3145 11.8193 11.3145C12.6064 11.3145 13.1777 10.9167 13.5332 10.1211L13.9014 10.375C13.512 11.4329 12.7165 11.9831 11.5146 12.0254ZM18.5859 8.45801C18.332 8.68652 17.875 8.89388 17.2148 9.08008C16.5547 9.26628 16.2246 9.68522 16.2246 10.3369C16.2585 11.0817 16.7197 11.4541 17.6084 11.4541C17.9893 11.4541 18.3151 11.3314 18.5859 11.0859V8.45801ZM17.5957 5.75391C19.1276 5.76237 19.9105 6.3929 19.9443 7.64551V11.0605C19.9443 11.2467 20.012 11.3398 20.1475 11.3398C20.2067 11.3398 20.4395 11.3906 20.8457 11.4922C20.5579 11.8307 20.2025 12.0085 19.7793 12.0254C19.3815 12.0254 19.0557 11.8942 18.8018 11.6318C18.3109 11.8942 17.6719 12.0254 16.8848 12.0254C15.6322 11.9154 14.9974 11.3737 14.9805 10.4004C14.9805 9.32552 15.5137 8.70768 16.5801 8.54688C17.638 8.36914 18.3236 8.10677 18.6367 7.75977V7.03613C18.5775 6.51986 18.3405 6.26172 17.9258 6.26172C17.5195 6.26172 17.2826 6.40983 17.2148 6.70605C17.1471 7.00228 17.0033 7.24772 16.7832 7.44238C16.6309 7.56934 16.4658 7.63281 16.2881 7.63281C15.8141 7.61589 15.5771 7.37467 15.5771 6.90918C15.5856 6.54525 15.8184 6.26172 16.2754 6.05859C16.724 5.85547 17.1641 5.75391 17.5957 5.75391ZM22.0771 7.07422C22.0348 6.66797 21.709 6.29134 21.0996 5.94434L22.2676 5.91895C22.6146 5.89355 22.987 5.85547 23.3848 5.80469V9.91797C23.3848 10.7812 23.7233 11.2129 24.4004 11.2129C24.9759 11.2129 25.5176 10.887 26.0254 10.2354V7.07422C25.9831 6.66797 25.653 6.29134 25.0352 5.94434C25.2214 5.94434 25.4245 5.9401 25.6445 5.93164C25.7969 5.93164 25.9831 5.92741 26.2031 5.91895C26.5501 5.89355 26.9268 5.85547 27.333 5.80469V10.7432C27.3669 11.1325 27.6927 11.5049 28.3105 11.8604C27.8958 11.8604 27.5107 11.873 27.1553 11.8984C26.9945 11.9069 26.8083 11.9238 26.5967 11.9492C26.5544 11.9492 26.5078 11.9535 26.457 11.9619C26.4147 11.9619 26.3682 11.9661 26.3174 11.9746L26.0254 12V11.0605C25.4668 11.6953 24.7897 12.0169 23.9941 12.0254C23.3509 12.0085 22.8727 11.835 22.5596 11.5049C22.238 11.1579 22.0771 10.6458 22.0771 9.96875V7.07422Z" fill="#212930"/>
</svg>
