<svg width="37" height="16" viewBox="0 0 37 16" fill="none" xmlns="http://www.w3.org/2000/svg">
<path d="M5.954 7.606C6.20533 7.83133 6.40467 8.10867 6.552 8.438C6.708 8.75867 6.786 9.10533 6.786 9.478C6.786 9.82467 6.71667 10.1497 6.578 10.453C6.448 10.7563 6.27033 11.025 6.045 11.259C5.81967 11.4843 5.55533 11.662 5.252 11.792C4.94867 11.922 4.62367 11.987 4.277 11.987H0.936V8.516V8.204C0.797333 8.178 0.680333 8.126 0.585 8.048C0.498333 7.96133 0.455 7.85733 0.455 7.736C0.455 7.62333 0.498333 7.52367 0.585 7.437C0.680333 7.35033 0.797333 7.294 0.936 7.268V6.956V3.485H4.017C4.36367 3.485 4.68867 3.55433 4.992 3.693C5.29533 3.823 5.55967 4.00067 5.785 4.226C6.01033 4.45133 6.188 4.72 6.318 5.032C6.45667 5.33533 6.526 5.66033 6.526 6.007C6.526 6.31033 6.474 6.59633 6.37 6.865C6.266 7.13367 6.12733 7.38067 5.954 7.606ZM2.496 6.956H4.017C4.277 6.956 4.498 6.865 4.68 6.683C4.87067 6.49233 4.966 6.267 4.966 6.007C4.966 5.73833 4.87067 5.513 4.68 5.331C4.498 5.14033 4.277 5.045 4.017 5.045H2.496V6.956ZM4.277 10.427C4.537 10.427 4.758 10.336 4.94 10.154C5.13067 9.96333 5.226 9.738 5.226 9.478C5.226 9.20933 5.13067 8.984 4.94 8.802C4.758 8.61133 4.537 8.516 4.277 8.516H2.496V10.427H4.277ZM10.8373 5.825C11.236 5.825 11.6043 5.89867 11.9423 6.046C12.2803 6.18467 12.5707 6.384 12.8133 6.644C13.0647 6.89533 13.2597 7.19433 13.3983 7.541C13.537 7.88767 13.6063 8.26467 13.6063 8.672V9.387H12.8913H12.1763H9.26433C9.35966 9.725 9.55033 10.0067 9.83633 10.232C10.131 10.4487 10.4647 10.557 10.8373 10.557C11.0887 10.557 11.3227 10.505 11.5393 10.401C11.756 10.297 11.9423 10.1497 12.0983 9.959L13.2033 10.882C12.9087 11.2373 12.5533 11.5103 12.1373 11.701C11.73 11.8917 11.2967 11.987 10.8373 11.987C10.4213 11.987 10.027 11.909 9.65433 11.753C9.28166 11.597 8.95233 11.376 8.66633 11.09C8.37166 10.7953 8.14633 10.4617 7.99033 10.089C7.83433 9.71633 7.75633 9.322 7.75633 8.906C7.75633 8.49 7.83433 8.09567 7.99033 7.723C8.14633 7.35033 8.37166 7.021 8.66633 6.735C8.95233 6.44033 9.28166 6.215 9.65433 6.059C10.027 5.903 10.4213 5.825 10.8373 5.825ZM10.8373 7.255C10.508 7.255 10.209 7.346 9.94033 7.528C9.67166 7.71 9.47233 7.93967 9.34233 8.217H12.1243C12.0377 7.92233 11.8817 7.68833 11.6563 7.515C11.431 7.34167 11.158 7.255 10.8373 7.255ZM16.9509 5.864C17.2109 5.812 17.4882 5.82067 17.7829 5.89C18.0775 5.95933 18.3159 6.098 18.4979 6.306L17.4839 7.255C17.4232 7.19433 17.3625 7.14233 17.3019 7.099C17.2412 7.05567 17.1762 7.02533 17.1069 7.008C17.0375 6.982 16.9595 6.982 16.8729 7.008C16.6735 7.06 16.5002 7.27233 16.3529 7.645C16.2142 8.009 16.1449 8.61133 16.1449 9.452V11.987H14.7149V5.825H16.1449V6.306C16.3615 6.072 16.6302 5.92467 16.9509 5.864ZM21.7256 10.557C21.8556 10.557 21.977 10.5093 22.0896 10.414L23.0516 11.467C22.679 11.8137 22.237 11.987 21.7256 11.987C21.4483 11.987 21.1883 11.935 20.9456 11.831C20.7116 11.727 20.5036 11.5883 20.3216 11.415C20.1483 11.233 20.0096 11.025 19.9056 10.791C19.8016 10.5483 19.7496 10.2883 19.7496 10.011V6.995H18.8916V5.825H19.7496V4.278L21.1796 3.485V5.825H22.5706V6.995H21.1796V10.011C21.1796 10.1583 21.2316 10.2883 21.3356 10.401C21.4483 10.505 21.5783 10.557 21.7256 10.557ZM26.7128 5.825C27.0854 5.825 27.4364 5.89867 27.7658 6.046C28.1038 6.18467 28.3984 6.37967 28.6498 6.631C28.9011 6.88233 29.0961 7.177 29.2348 7.515C29.3821 7.84433 29.4558 8.19533 29.4558 8.568V11.987H28.0258V8.568C28.0258 8.386 27.9911 8.217 27.9218 8.061C27.8524 7.905 27.7571 7.76633 27.6358 7.645C27.5231 7.52367 27.3844 7.42833 27.2198 7.359C27.0638 7.28967 26.8948 7.255 26.7128 7.255C26.5048 7.255 26.3228 7.31133 26.1668 7.424C26.0108 7.53667 25.8981 7.64067 25.8288 7.736C25.6988 7.892 25.5948 8.06533 25.5168 8.256C25.4388 8.44667 25.3998 8.63733 25.3998 8.828V11.987H23.9698V3.485H25.3998V6.215C25.4344 6.19767 25.4648 6.18033 25.4908 6.163C25.5254 6.14567 25.5601 6.12833 25.5948 6.111C25.9588 5.92033 26.3314 5.825 26.7128 5.825ZM34.8112 5.825H36.2412V11.987H34.8112V11.558C34.7592 11.5927 34.7072 11.6273 34.6552 11.662C34.6032 11.688 34.5468 11.714 34.4862 11.74C34.1308 11.9047 33.7452 11.987 33.3292 11.987C32.9218 11.987 32.5405 11.9047 32.1852 11.74C31.8385 11.584 31.5308 11.3587 31.2622 11.064C30.9935 10.778 30.7855 10.453 30.6382 10.089C30.4995 9.71633 30.4302 9.322 30.4302 8.906C30.4302 8.49867 30.4995 8.113 30.6382 7.749C30.7855 7.37633 30.9935 7.04267 31.2622 6.748C31.5222 6.462 31.8298 6.241 32.1852 6.085C32.5578 5.91167 32.9392 5.825 33.3292 5.825C33.7278 5.825 34.1135 5.91167 34.4862 6.085C34.6162 6.137 34.7245 6.19333 34.8112 6.254V5.825ZM33.3292 10.557C33.5372 10.557 33.7278 10.5137 33.9012 10.427C34.0832 10.3403 34.2392 10.2233 34.3692 10.076C34.5078 9.92867 34.6162 9.75533 34.6942 9.556C34.7722 9.348 34.8112 9.13133 34.8112 8.906C34.8112 8.68067 34.7722 8.46833 34.6942 8.269C34.6162 8.06967 34.5078 7.89633 34.3692 7.749C34.2392 7.593 34.0832 7.47167 33.9012 7.385C33.7278 7.29833 33.5372 7.255 33.3292 7.255C33.1298 7.255 32.9392 7.29833 32.7572 7.385C32.5838 7.47167 32.4278 7.593 32.2892 7.749C32.1592 7.89633 32.0552 8.06967 31.9772 8.269C31.8992 8.46833 31.8602 8.68067 31.8602 8.906C31.8602 9.13133 31.8992 9.348 31.9772 9.556C32.0552 9.75533 32.1592 9.92867 32.2892 10.076C32.4278 10.2233 32.5838 10.3403 32.7572 10.427C32.9392 10.5137 33.1298 10.557 33.3292 10.557Z" fill="#212930"/>
</svg>
