<?xml version="1.0" standalone="no"?><!DOCTYPE svg PUBLIC "-//W3C//DTD SVG 1.1//EN" "http://www.w3.org/Graphics/SVG/1.1/DTD/svg11.dtd"><svg t="1669862654602" class="icon" viewBox="0 0 2340 1024" version="1.1" xmlns="http://www.w3.org/2000/svg" p-id="10166" xmlns:xlink="http://www.w3.org/1999/xlink" width="457.03125" height="200"><path d="M0 0m371.885498 0l956.276994 0q371.885498 0 371.885498 371.885498l0 0q0 371.885498-371.885498 371.885498l-956.276994 0q-371.885498 0-371.885498-371.885498l0 0q0-371.885498 371.885498-371.885498Z" fill="#E6F2FD" p-id="10167"></path><path d="M462.731812 292.195748c-52.595235 0-76.50216 20.18807-88.721254 45.68879V180.630099H307.602433V584.391497h60.032945l5.31265-43.56373c11.156565 29.75084 35.06349 48.87638 89.783784 48.87638 94.033904 0 115.815769-67.470655 115.81577-148.7542 0-89.783784-21.781865-148.754199-115.81577-148.754199z m-18.06301 245.975694c-57.907885 0-74.3771-38.25108-74.377099-97.221495 0-61.62674 16.469215-97.752759 74.377099-97.752759 57.37662 0 65.345595 42.5012 65.345595 97.752759 0 51.532705-7.43771 97.221494-65.345595 97.221495zM889.178225 415.980493c0-67.470655-20.719335-123.784744-120.065889-123.784745-87.12746 0-137.597634 32.407165-137.597634 148.754199s50.470175 148.754199 137.597634 148.7542c46.75132 0 88.189989-9.031505 105.190469-19.12554V516.389577c-19.656805 9.56277-58.970415 19.656805-93.502639 19.656805-57.37662 0-80.75228-21.781865-82.346075-70.12698l188.067809-12.219095c1.593795-10.094035 2.656325-23.37566 2.656325-37.719814z m-190.724134 2.656325c1.593795-49.407645 17.531745-75.43963 70.658245-75.43963 51.00144 0 58.43915 30.282105 58.43915 65.87686l-129.097395 9.56277zM1091.058924 350.634898v-53.1265h-63.220534V229.506479h-66.408125V297.508398h-39.844875v53.1265h39.844875v143.441549c0 75.43963 23.906925 93.502639 92.440109 93.50264 12.219095 0 24.43819-1.06253 35.594755-2.656325v-52.595235c-7.968975 2.12506-15.93795 2.656325-26.031985 2.656325-29.75084 0-35.594755-9.031505-35.594754-46.220055V350.634898h63.220534zM1260.851217 292.195748c-20.719335 0-46.75132 1.06253-68.533184 4.781385v56.845355c20.719335-3.718855 40.907405-5.843915 61.626739-5.843915 53.1265 0 64.81433 17.00048 64.81433 51.00144v12.75036h-77.033425c-74.3771 0-116.347034 23.906925-116.347034 91.377579 0 57.907885 32.93843 86.596195 98.284024 86.596195 46.220055 0 81.283545-17.00048 95.6277-41.969935l6.906445 36.657285h58.970415V384.104593c0-57.37662-30.282105-91.908844-124.31601-91.908845z m-22.844395 245.444429c-33.469695 0-46.75132-11.68783-46.751319-36.657285 0-34.00096 17.531745-41.969935 59.501679-41.969935h68.00192v37.719815c-12.219095 24.969455-40.37614 40.907405-80.75228 40.907405z" fill="#067BEF" p-id="10168"></path></svg>