<svg width="30" height="16" viewBox="0 0 30 16" fill="none" xmlns="http://www.w3.org/2000/svg">
<path d="M1.495 11.337L0.676 11.506L0.624 12H4.069C5.759 12 7.202 11.415 7.202 9.504C7.202 8.243 6.318 7.606 5.395 7.32C6.11 7.021 6.734 6.475 6.734 5.539C6.734 3.628 5.031 3.29 3.874 3.29H0.494L0.533 3.784L1.482 3.94C1.482 4.356 1.495 11.012 1.495 11.337ZM2.73 7.684C2.73 7.697 3.601 7.684 3.835 7.684C5.226 7.684 5.915 8.425 5.915 9.504C5.915 10.583 5.304 11.337 3.835 11.337H2.704C2.704 11.337 2.756 7.762 2.73 7.814V7.684ZM3.627 3.94C4.628 3.94 5.447 4.46 5.447 5.539C5.447 6.618 4.628 7.021 3.64 7.021H2.691V3.953C2.925 3.953 3.458 3.94 3.627 3.94ZM12.6318 5.812C12.6448 5.825 12.4108 5.682 11.9168 5.682C11.3838 5.682 10.1488 6.163 10.0578 6.215L9.95384 5.604L8.27684 5.916V6.371L9.04384 6.527H9.05684V11.363L8.35484 11.545L8.30284 12H11.2928L11.2148 11.545L10.1488 11.363V6.852C10.2398 6.813 10.7858 6.579 11.5658 6.579L11.9298 7.619H12.5408L12.6318 5.812ZM18.8343 11.376C18.8343 11.389 18.6913 10.908 18.6913 10.908C18.6913 10.908 18.0803 11.298 16.7283 11.298C15.3243 11.298 14.8433 10.05 14.8433 8.685C16.1563 8.672 18.8733 8.62 18.8733 8.62C18.8733 8.62 18.9123 8.386 18.9123 8.009C18.9123 7.632 18.9383 5.617 16.5333 5.617C15.1813 5.617 13.6733 6.631 13.6733 8.945C13.6733 10.505 14.4013 12.169 16.4553 12.169C17.8593 12.169 18.8343 11.376 18.8343 11.376ZM16.5073 6.189C17.6513 6.189 17.7423 7.294 17.7423 7.723V7.879C17.7423 7.879 15.5973 8.1 14.8693 8.165C14.9603 7.125 15.3633 6.189 16.5073 6.189ZM21.918 2.77L19.968 3.095V3.55L20.813 3.706V11.376L20.072 11.545L20.02 12H22.737L22.659 11.545L21.905 11.376L21.918 2.77ZM25.274 8.828C24.156 8.997 23.766 9.712 23.766 10.531C23.766 11.363 24.286 12.13 25.339 12.13C26.431 12.13 27.51 11.35 27.51 11.35L27.705 12.104L29.356 11.922L29.291 11.467L28.537 11.194V7.333C28.537 6.124 27.796 5.604 26.886 5.604C25.508 5.604 24.169 6.163 24.169 6.163L24.247 7.788H24.858L25.222 6.605C25.222 6.605 25.69 6.293 26.327 6.293C26.951 6.293 27.445 6.436 27.445 7.099V8.516L25.274 8.828ZM27.445 10.791C27.445 10.817 26.626 11.337 25.742 11.337C25.482 11.337 24.936 11.259 24.936 10.414C24.936 9.79 25.3 9.452 25.924 9.361L27.445 9.114V10.791Z" fill="#212930"/>
</svg>
