<svg width="52" height="16" viewBox="0 0 52 16" fill="none" xmlns="http://www.w3.org/2000/svg">
<path d="M4.069 4.173H1.027V3.432H3.913L3.64 2.21L4.459 2.08L4.758 3.432H7.891L8.177 1.976L9.035 2.106L8.736 3.432H11.752L11.583 4.173H8.58L8.281 5.512L7.514 5.408L7.748 4.173H4.927C5.005 4.50233 5.08733 4.87067 5.174 5.278L4.342 5.421L4.069 4.173ZM6.851 5.46C7.397 5.772 9.26033 6.851 12.441 8.697L12.168 8.892L12.077 9.425L6.188 5.98C4.28133 7.488 2.55233 8.775 1.001 9.841L0.767 9.438L0.442 9.295C2.47 7.83033 4.53267 6.25733 6.63 4.576L7.202 5.174C7.046 5.29533 6.929 5.39067 6.851 5.46ZM11.037 13C11.3577 13 11.6263 12.9393 11.843 12.818L11.635 13.78H4.251C3.72233 13.78 3.458 13.52 3.458 13V8.346C3.62267 8.424 3.757 8.46733 3.861 8.476H8.71C8.85733 8.476 8.92233 8.54967 8.905 8.697C8.84433 9.31233 8.749 10.4217 8.619 12.025L7.553 11.57L7.8 11.479L7.995 9.23H4.238V13H11.037ZM25.246 11.44L22.88 11.648V14.105H21.996V11.739C19.0493 12.0163 16.4103 12.2763 14.079 12.519L14.092 11.973L13.962 11.7L16.393 11.466V4.381C16.393 4.121 16.3887 3.94767 16.38 3.861C15.548 3.861 14.9327 3.86533 14.534 3.874L14.586 3.354L14.469 3.068H24.7L24.557 3.861L22.88 3.848V10.855L25.363 10.621L25.246 11.44ZM17.238 3.848V5.733H21.996V4.68C21.996 4.40267 21.9873 4.12533 21.97 3.848H17.238ZM17.238 8.346H21.996V6.474C20.2367 6.45667 18.6507 6.461 17.238 6.487V8.346ZM21.996 10.946V9.1C20.4273 9.08267 18.8413 9.08267 17.238 9.1V11.388L21.996 10.946ZM37.128 4.55C35.1 4.524 32.617 4.52833 29.679 4.563L29.458 7.124H36.478C36.634 7.124 36.7033 7.20633 36.686 7.371C36.6167 8.40233 36.439 10.6643 36.153 14.157L34.983 13.624L35.282 13.533L35.724 7.982H28.496L28.925 2.795C28.9597 2.50033 28.9597 2.24467 28.925 2.028C29.3323 2.132 29.6487 2.171 29.874 2.145L29.744 3.731H37.258L37.128 4.55ZM34.983 10.166L34.853 10.959C31.967 10.933 29.2413 10.9373 26.676 10.972L26.741 10.439L26.624 10.166H34.983ZM45.084 8.281V7.358C43.2727 7.358 41.951 7.36233 41.119 7.371L41.184 6.955L41.08 6.734H45.084V5.863H41.132L41.275 2.639C45.9463 2.64767 48.6937 2.65633 49.517 2.665C49.7077 2.665 49.803 2.75167 49.803 2.925C49.7683 3.64433 49.738 4.62367 49.712 5.863H45.916V6.734H49.842L49.738 7.371C48.9493 7.36233 47.6753 7.358 45.916 7.358V8.281H51.025L50.895 8.944C47.9917 8.918 44.9583 8.918 41.795 8.944L42.25 9.36L40.768 11.362L40.521 10.881L40.222 10.725L41.639 8.944L40.001 8.957L40.066 8.515L39.962 8.281H45.084ZM42.068 5.226H45.084V3.224H42.068V5.226ZM46.319 4.914C46.865 4.29867 47.333 3.73533 47.723 3.224H45.838V5.226H46.644L46.54 5.018L46.319 4.914ZM48.815 3.224H47.762L48.165 3.705C47.7403 4.25967 47.3157 4.76667 46.891 5.226H48.815V3.224ZM44.343 4.81L43.823 5.2L42.614 3.783L43.134 3.406L44.343 4.81ZM43.29 9.204L44.018 8.931L44.915 10.673L44.187 10.959L43.29 9.204ZM48.36 9.399L48.997 8.97L50.583 10.907L49.933 11.362L48.36 9.399ZM45.968 9.321L46.709 9.048L47.567 10.673L46.813 10.959L45.968 9.321ZM51.103 13.026L50.973 13.702C47.9483 13.676 44.278 13.6803 39.962 13.715L40.027 13.273L39.91 13.026H45.058V11.986C43.3073 11.986 42.029 11.9903 41.223 11.999L41.288 11.57L41.184 11.336H45.058V10.595C45.058 10.413 45.0407 10.283 45.006 10.205C45.3873 10.2657 45.6777 10.2917 45.877 10.283V11.336H49.816L49.712 11.999C48.9147 11.9903 47.6363 11.986 45.877 11.986V13.026H51.103Z" fill="#212930"/>
</svg>
