<?xml version="1.0" encoding="utf-8"?>
<!-- Generator: Adobe Illustrator 25.0.0, SVG Export Plug-In . SVG Version: 6.00 Build 0)  -->
<svg version="1.1" id="图层_1" xmlns="http://www.w3.org/2000/svg" xmlns:xlink="http://www.w3.org/1999/xlink" x="0px" y="0px"
	 viewBox="0 0 250 250" style="enable-background:new 0 0 250 250;" xml:space="preserve">
<style type="text/css">
	.st0{fill:#067BEF;}
	.st1{fill:#FFFFFF;}
</style>
<g>
	<g>
		<path class="st0" d="M208.2,249.6H41.8c-22.9,0-41.4-18.5-41.4-41.4V41.8c0-22.9,18.5-41.4,41.4-41.4h166.4
			c22.9,0,41.4,18.5,41.4,41.4v166.4C249.6,231.1,231.1,249.6,208.2,249.6z"/>
		<g>
			<path class="st1" d="M135.2,123.7c0,42.3-25.7,66.5-60.5,66.5c-35.6,0-58.1-27.2-58.1-64.3c0-38.8,24.4-66.1,59.9-66.1
				C113.5,59.9,135.2,87.8,135.2,123.7z M41,125.6c0,25.7,12.9,46.1,35,46.1c22.3,0,34.8-20.6,34.8-47c0-23.8-11.8-46.3-34.8-46.3
				C53.2,78.4,41,99.6,41,125.6z"/>
			<path class="st1" d="M150.8,124.1c0-10.5-0.2-19.3-0.7-27.2h20.2l1.1,13.7h0.6c3.9-7.1,13.9-15.7,29-15.7
				c15.9,0,32.4,10.3,32.4,39.2v54.1h-23v-51.5c0-13.1-4.9-23-17.4-23c-9.2,0-15.5,6.6-18,13.5c-0.7,2.1-0.9,4.9-0.9,7.5v53.6h-23.2
				L150.8,124.1L150.8,124.1z"/>
		</g>
	</g>
</g>
</svg>
