<svg width="121" height="120" viewBox="0 0 121 120" fill="none" xmlns="http://www.w3.org/2000/svg">
<g id="Frame 1151">
<g id="Group 520">
<path id="Vector 24" d="M106.702 32.9145C108.135 30.9608 113.882 27.1806 117.76 29.067C120.682 30.4886 114.663 33.5543 113.928 32.8356C113.194 32.1168 111.833 28.3917 119.537 22.3879" stroke="#C5D2E6" stroke-width="1.84981" stroke-linecap="round"/>
<path id="Union" fill-rule="evenodd" clip-rule="evenodd" d="M0.540917 46.5538C0.290828 46.9992 0.44916 47.563 0.894561 47.8131L8.42514 52.0414C8.87054 52.2915 9.43435 52.1332 9.68444 51.6878C9.93452 51.2424 9.77619 50.6786 9.33079 50.4285L1.80021 46.2001C1.35481 45.95 0.791006 46.1084 0.540917 46.5538ZM13.4981 37.962C12.9953 38.0521 12.6607 38.5327 12.7508 39.0355L14.2737 47.5367C14.3638 48.0395 14.8444 48.3741 15.3473 48.284C15.8501 48.1939 16.1846 47.7133 16.0946 47.2105L14.5716 38.7093C14.4816 38.2065 14.0009 37.872 13.4981 37.962ZM8.13199 44.9234C7.86402 44.4886 7.99933 43.9188 8.43421 43.6508C8.86909 43.3828 9.43886 43.5182 9.70683 43.953L12.7179 48.8395C12.9858 49.2744 12.8505 49.8442 12.4157 50.1122C11.9808 50.3801 11.411 50.2448 11.143 49.8099L8.13199 44.9234Z" fill="#C5D2E6"/>
<g id="Vector">
<path d="M26.7839 30.2628C26.7839 29.0174 27.7827 28.0078 29.0147 28.0078H91.4774C92.7095 28.0078 93.7082 29.0174 93.7082 30.2628V96.7854C93.7082 98.0308 92.7095 99.0404 91.4774 99.0404H29.0147C27.7827 99.0404 26.7839 98.0308 26.7839 96.7854V30.2628Z" fill="url(#paint0_linear_2787_17398)"/>
<path d="M18.9761 91.1479C18.9761 89.9025 19.9748 88.8929 21.2069 88.8929H39.0534C40.2854 88.8929 41.2842 89.9025 41.2842 91.1479V96.7854C41.2842 98.0308 40.2854 99.0404 39.0534 99.0404H21.2069C19.9748 99.0404 18.9761 98.0308 18.9761 96.7854V91.1479Z" fill="url(#paint1_linear_2787_17398)"/>
</g>
<path id="Rectangle 3972" d="M13.0562 60.1945C13.0562 55.9037 16.5345 52.4253 20.8253 52.4253H26.9833C27.4645 52.4253 27.8546 52.8154 27.8546 53.2966V91.6412C27.8546 95.7277 24.5419 99.0404 20.4554 99.0404C16.3689 99.0404 13.0562 95.7277 13.0562 91.6412V60.1945Z" fill="#DBE2F1"/>
<g id="Frame">
<g id="Vector_2" filter="url(#filter0_i_2787_17398)">
<path d="M75.6856 78.4809L68.022 70.5531C70.4004 68.1748 71.7216 65.0037 71.7216 61.5684C71.7216 54.1691 65.908 48.3555 58.5088 48.3555C51.1095 48.3555 45.2959 54.1691 45.2959 61.5684C45.2959 68.9676 51.1096 74.7813 58.5088 74.7813C60.8871 74.7813 63.0012 74.2528 64.851 73.1958C64.851 73.46 65.1152 73.46 65.1152 73.7243L72.7788 81.3877C73.5715 82.1805 74.8928 82.1805 75.6856 81.3877C76.4784 80.595 76.4784 79.2736 75.6856 78.4809H75.6856ZM58.5088 70.8174C53.4879 70.8174 49.2598 66.5893 49.2598 61.5684C49.2598 56.5474 53.4879 52.3193 58.5088 52.3193C63.5297 52.3193 67.7578 56.5475 67.7578 61.5684C67.7578 66.5892 63.5297 70.8174 58.5088 70.8174Z" fill="#C4D1EC"/>
</g>
</g>
<g id="Mask group">
<mask id="mask0_2787_17398" style="mask-type:alpha" maskUnits="userSpaceOnUse" x="7" y="52" width="21" height="48">
<path id="Rectangle 3973" d="M10.255 64.433C11.8959 57.4005 18.1655 52.4253 25.3869 52.4253H26.9839C27.4651 52.4253 27.8552 52.8154 27.8552 53.2966V90.8651C27.8552 95.3802 24.1949 99.0404 19.6798 99.0404C15.8185 99.0404 12.4837 96.3387 11.6824 92.5614L7.90442 74.7501C7.88665 74.6664 7.88753 74.5797 7.90698 74.4964L10.255 64.433Z" fill="#DBE2F1"/>
</mask>
<g mask="url(#mask0_2787_17398)">
<g id="Group 514">
<g id="Rectangle 3968">
<path d="M39.3245 70.1763L22.103 59.8453C21.4021 59.4248 20.4931 59.6521 20.0727 60.353L11.5987 74.4788C11.1783 75.1797 11.4056 76.0887 12.1065 76.5091L18.8172 80.5349L23.3771 83.2703L29.3279 86.8402C30.0288 87.2606 30.9378 87.0333 31.3582 86.3324L39.8322 72.2066C40.2527 71.5057 40.0253 70.5968 39.3245 70.1763Z" fill="#E1E3E6"/>
<path d="M39.3245 70.1763L22.103 59.8453C21.4021 59.4248 20.4931 59.6521 20.0727 60.353L11.5987 74.4788C11.1783 75.1797 11.4056 76.0887 12.1065 76.5091L18.8172 80.5349L23.3771 83.2703L29.3279 86.8402C30.0288 87.2606 30.9378 87.0333 31.3582 86.3324L39.8322 72.2066C40.2527 71.5057 40.0253 70.5968 39.3245 70.1763Z" fill="url(#paint2_linear_2787_17398)"/>
</g>
<rect id="Rectangle 3969" x="20.6699" y="66.8228" width="14.4014" height="1.47984" rx="0.739922" transform="rotate(30.9593 20.6699 66.8228)" fill="#EBF2FF"/>
<path id="Rectangle 3970" d="M17.3259 72.3972C17.5361 72.0468 17.9906 71.9331 18.3411 72.1433L25.3052 76.3211C25.6556 76.5313 25.7693 76.9858 25.559 77.3362C25.3488 77.6866 24.8943 77.8003 24.5439 77.5901L17.5798 73.4123C17.2293 73.2021 17.1157 72.7476 17.3259 72.3972Z" fill="#EBF2FF"/>
</g>
</g>
</g>
<g id="Group 515">
<g id="Rectangle 3962">
<path d="M93.2459 34.8832C93.2459 34.8832 102.916 39.6289 104.073 40.1965C104.366 40.8101 96.7758 51.7483 94.9519 51.7929C91.0992 51.8871 83.1836 46.0574 83.2886 45.0519C89.2673 42.2306 93.2459 34.8832 93.2459 34.8832Z" fill="#E1E3E6"/>
<path d="M93.2459 34.8832C93.2459 34.8832 102.916 39.6289 104.073 40.1965C104.366 40.8101 96.7758 51.7483 94.9519 51.7929C91.0992 51.8871 83.1836 46.0574 83.2886 45.0519C89.2673 42.2306 93.2459 34.8832 93.2459 34.8832Z" fill="url(#paint3_linear_2787_17398)"/>
</g>
<rect id="Rectangle 3966" opacity="0.8" width="5.64631" height="1.09474" rx="0.547371" transform="matrix(-0.873033 -0.487662 -0.262136 0.965031 98.1025 43.2188)" fill="white"/>
<path id="Rectangle 3967" opacity="0.8" d="M96.3033 46.6859C96.3825 46.3942 96.2328 46.0382 95.9689 45.8908L93.1159 44.2971C92.8519 44.1497 92.5737 44.2667 92.4945 44.5584C92.4153 44.8501 92.565 45.2062 92.8289 45.3536L95.6819 46.9472C95.9459 47.0947 96.224 46.9777 96.3033 46.6859Z" fill="white"/>
</g>
</g>
</g>
<defs>
<filter id="filter0_i_2787_17398" x="45.2959" y="48.3555" width="30.9844" height="34.3669" filterUnits="userSpaceOnUse" color-interpolation-filters="sRGB">
<feFlood flood-opacity="0" result="BackgroundImageFix"/>
<feBlend mode="normal" in="SourceGraphic" in2="BackgroundImageFix" result="shape"/>
<feColorMatrix in="SourceAlpha" type="matrix" values="0 0 0 0 0 0 0 0 0 0 0 0 0 0 0 0 0 0 127 0" result="hardAlpha"/>
<feOffset dy="0.739922"/>
<feGaussianBlur stdDeviation="0.739922"/>
<feComposite in2="hardAlpha" operator="arithmetic" k2="-1" k3="1"/>
<feColorMatrix type="matrix" values="0 0 0 0 1 0 0 0 0 1 0 0 0 0 1 0 0 0 0.5 0"/>
<feBlend mode="normal" in2="shape" result="effect1_innerShadow_2787_17398"/>
</filter>
<linearGradient id="paint0_linear_2787_17398" x1="93.7082" y1="99.0404" x2="93.7082" y2="28.0078" gradientUnits="userSpaceOnUse">
<stop stop-color="#E4EAF5"/>
<stop offset="1" stop-color="#F7FAFF"/>
</linearGradient>
<linearGradient id="paint1_linear_2787_17398" x1="93.7082" y1="99.0404" x2="93.7082" y2="28.0078" gradientUnits="userSpaceOnUse">
<stop stop-color="#E4EAF5"/>
<stop offset="1" stop-color="#F7FAFF"/>
</linearGradient>
<linearGradient id="paint2_linear_2787_17398" x1="30.7137" y1="65.0108" x2="20.7172" y2="81.6746" gradientUnits="userSpaceOnUse">
<stop stop-color="#B4CFFD"/>
<stop offset="1" stop-color="#6AA1FF"/>
</linearGradient>
<linearGradient id="paint3_linear_2787_17398" x1="96.4395" y1="36.4504" x2="89.7442" y2="50.0938" gradientUnits="userSpaceOnUse">
<stop stop-color="#B4CFFD"/>
<stop offset="1" stop-color="#6AA1FF"/>
</linearGradient>
</defs>
</svg>
