<svg width="53" height="16" viewBox="0 0 53 16" fill="none" xmlns="http://www.w3.org/2000/svg">
<path d="M3.679 8.645C3.679 8.67967 3.64 8.72733 3.562 8.788C3.49267 8.84867 3.393 8.905 3.263 8.957C3.14167 9.009 3.003 9.05667 2.847 9.1C2.691 9.13467 2.53067 9.152 2.366 9.152H2.145V2.288L3.783 2.938H9.217L9.932 2.158L11.414 3.289C11.3707 3.341 11.3057 3.39733 11.219 3.458C11.1323 3.51 11.0197 3.549 10.881 3.575V8.528C10.881 8.554 10.8377 8.58867 10.751 8.632C10.6643 8.67533 10.556 8.71867 10.426 8.762C10.3047 8.80533 10.1703 8.84433 10.023 8.879C9.87567 8.905 9.737 8.918 9.607 8.918H9.347V8.216H3.679V8.645ZM3.679 5.343H5.785V3.315H3.679V5.343ZM7.254 5.343H9.347V3.315H7.254V5.343ZM7.254 7.839H9.347V5.707H7.254V7.839ZM3.679 7.839H5.785V5.707H3.679V7.839ZM5.746 8.658C6.266 8.77067 6.69067 8.918 7.02 9.1C7.34933 9.27333 7.60067 9.464 7.774 9.672C7.94733 9.87133 8.05567 10.075 8.099 10.283C8.14233 10.4823 8.13367 10.6687 8.073 10.842C8.01233 11.0067 7.91267 11.141 7.774 11.245C7.644 11.349 7.49233 11.401 7.319 11.401C7.215 11.401 7.10667 11.3837 6.994 11.349C6.88133 11.3057 6.76867 11.2363 6.656 11.141C6.64733 10.933 6.61267 10.7207 6.552 10.504C6.49133 10.2787 6.41333 10.062 6.318 9.854C6.23133 9.646 6.12733 9.44667 6.006 9.256C5.89333 9.06533 5.772 8.892 5.642 8.736L5.746 8.658ZM10.309 12.857C10.309 13.0217 10.2613 13.1603 10.166 13.273C10.0793 13.3857 9.91467 13.4767 9.672 13.546C9.42933 13.6153 9.09567 13.663 8.671 13.689C8.255 13.7237 7.722 13.741 7.072 13.741H5.382C5.00933 13.741 4.70167 13.7237 4.459 13.689C4.225 13.6543 4.03867 13.5893 3.9 13.494C3.76133 13.3987 3.666 13.2643 3.614 13.091C3.562 12.9263 3.536 12.714 3.536 12.454V9.308L5.473 9.464C5.447 9.63733 5.31267 9.75 5.07 9.802V12.155C5.07 12.2503 5.10033 12.3153 5.161 12.35C5.22167 12.3847 5.37767 12.402 5.629 12.402H7.241C7.51833 12.402 7.774 12.402 8.008 12.402C8.25067 12.402 8.424 12.3977 8.528 12.389C8.64067 12.3803 8.723 12.363 8.775 12.337C8.827 12.311 8.879 12.2633 8.931 12.194C9.009 12.0813 9.1 11.895 9.204 11.635C9.308 11.375 9.425 11.05 9.555 10.66H9.698L9.737 12.246C9.971 12.324 10.1227 12.4107 10.192 12.506C10.27 12.6013 10.309 12.7183 10.309 12.857ZM9.724 9.438C10.322 9.60267 10.8117 9.802 11.193 10.036C11.5743 10.27 11.869 10.5127 12.077 10.764C12.2937 11.0153 12.428 11.271 12.48 11.531C12.5407 11.7823 12.545 12.0077 12.493 12.207C12.441 12.4063 12.3413 12.571 12.194 12.701C12.0553 12.8223 11.8907 12.883 11.7 12.883C11.5873 12.883 11.4703 12.8613 11.349 12.818C11.2363 12.7747 11.1193 12.701 10.998 12.597C10.9807 12.3283 10.9287 12.0553 10.842 11.778C10.764 11.492 10.66 11.219 10.53 10.959C10.4087 10.6903 10.2657 10.4347 10.101 10.192C9.945 9.94933 9.78033 9.72833 9.607 9.529L9.724 9.438ZM1.768 12.961C1.60333 13.065 1.42567 13.117 1.235 13.117C1.06167 13.117 0.901333 13.0737 0.754 12.987C0.606667 12.8917 0.502667 12.753 0.442 12.571C0.355333 12.3023 0.377 12.0727 0.507 11.882C0.637 11.6913 0.810333 11.5353 1.027 11.414C1.14833 11.3447 1.26967 11.2493 1.391 11.128C1.51233 10.998 1.62067 10.8507 1.716 10.686C1.81133 10.5213 1.885 10.3437 1.937 10.153C1.99767 9.95367 2.01933 9.74567 2.002 9.529L2.158 9.516C2.35733 9.958 2.483 10.3697 2.535 10.751C2.587 11.1237 2.58267 11.4573 2.522 11.752C2.47 12.038 2.37467 12.285 2.236 12.493C2.106 12.701 1.95 12.857 1.768 12.961ZM22.815 12.35C22.815 12.5927 22.7933 12.818 22.75 13.026C22.7153 13.234 22.633 13.416 22.503 13.572C22.3817 13.728 22.204 13.8537 21.97 13.949C21.736 14.053 21.4283 14.1223 21.047 14.157C21.0383 13.9143 21.0167 13.7063 20.982 13.533C20.9473 13.3683 20.8867 13.2253 20.8 13.104C20.7133 12.9827 20.592 12.8873 20.436 12.818C20.2887 12.74 20.0937 12.6793 19.851 12.636V12.467C20.0503 12.4757 20.2367 12.4843 20.41 12.493C20.5573 12.5103 20.7003 12.5233 20.839 12.532C20.9863 12.532 21.0903 12.532 21.151 12.532C21.2463 12.532 21.307 12.5147 21.333 12.48C21.3677 12.4367 21.385 12.3803 21.385 12.311V9.139H20.644V9.334C20.644 9.36 20.6093 9.399 20.54 9.451C20.4793 9.503 20.3927 9.55067 20.28 9.594C20.176 9.63733 20.0547 9.67633 19.916 9.711C19.786 9.74567 19.6473 9.763 19.5 9.763H19.305V4.485L20.709 5.057H21.06C21.0947 4.84033 21.1207 4.59333 21.138 4.316C21.164 4.03867 21.1857 3.757 21.203 3.471H18.642V6.214C18.642 6.812 18.6203 7.45767 18.577 8.151C18.5423 8.84433 18.4427 9.542 18.278 10.244C18.122 10.946 17.875 11.6307 17.537 12.298C17.199 12.9653 16.731 13.572 16.133 14.118L15.977 14.027C16.263 13.4463 16.4883 12.831 16.653 12.181C16.8177 11.531 16.939 10.8723 17.017 10.205C17.1037 9.529 17.1557 8.853 17.173 8.177C17.199 7.501 17.212 6.84667 17.212 6.214V2.496L18.863 3.107H23.426L24.219 2.054C24.3923 2.19267 24.5657 2.33133 24.739 2.47C24.8863 2.59133 25.0423 2.72567 25.207 2.873C25.3803 3.01167 25.532 3.14167 25.662 3.263C25.6447 3.33233 25.6057 3.38433 25.545 3.419C25.4843 3.45367 25.4063 3.471 25.311 3.471H21.775L23.114 3.783C23.0533 3.97367 22.893 4.07333 22.633 4.082C22.477 4.25533 22.308 4.42867 22.126 4.602C21.944 4.76667 21.7577 4.91833 21.567 5.057H23.374L24.011 4.381L25.35 5.395C25.2807 5.499 25.1247 5.577 24.882 5.629V9.269C24.882 9.295 24.843 9.32967 24.765 9.373C24.687 9.40767 24.5873 9.44667 24.466 9.49C24.3533 9.52467 24.2277 9.555 24.089 9.581C23.959 9.607 23.8377 9.62 23.725 9.62H23.491V9.139H22.815V12.35ZM14.235 2.093C14.7377 2.13633 15.145 2.223 15.457 2.353C15.7777 2.483 16.0203 2.63033 16.185 2.795C16.3583 2.951 16.4667 3.12 16.51 3.302C16.5533 3.47533 16.549 3.63567 16.497 3.783C16.445 3.92167 16.354 4.03867 16.224 4.134C16.1027 4.22933 15.9553 4.277 15.782 4.277C15.5827 4.277 15.3877 4.212 15.197 4.082C15.1277 3.73533 14.9847 3.393 14.768 3.055C14.56 2.70833 14.3477 2.41367 14.131 2.171L14.235 2.093ZM16.107 13.078C16.0897 13.4073 15.9857 13.6717 15.795 13.871C15.613 14.0703 15.3703 14.17 15.067 14.17C14.9197 14.17 14.7767 14.118 14.638 14.014C14.508 13.91 14.4213 13.7323 14.378 13.481C14.4387 13.143 14.4777 12.818 14.495 12.506C14.521 12.194 14.5297 11.9123 14.521 11.661C14.5123 11.4097 14.4863 11.2017 14.443 11.037C14.3997 10.8637 14.339 10.751 14.261 10.699C14.1657 10.6297 14.066 10.582 13.962 10.556C13.858 10.53 13.7367 10.5083 13.598 10.491V10.231H14.17C14.2653 10.231 14.3303 10.2223 14.365 10.205C14.4083 10.179 14.4647 10.0967 14.534 9.958C14.5773 9.87133 14.6163 9.79333 14.651 9.724C14.6857 9.65467 14.729 9.55067 14.781 9.412C14.8417 9.27333 14.9197 9.087 15.015 8.853C15.1103 8.61033 15.236 8.28533 15.392 7.878C15.5567 7.47067 15.7603 6.95933 16.003 6.344C16.2457 5.72 16.5403 4.95733 16.887 4.056L17.082 4.121C16.978 4.52833 16.8567 5.005 16.718 5.551C16.5793 6.08833 16.445 6.62133 16.315 7.15C16.185 7.67 16.068 8.14667 15.964 8.58C15.8687 9.00467 15.8037 9.308 15.769 9.49C15.717 9.71533 15.6737 9.94067 15.639 10.166C15.613 10.3827 15.6043 10.569 15.613 10.725C15.6217 10.907 15.652 11.076 15.704 11.232C15.7647 11.388 15.8253 11.557 15.886 11.739C15.9553 11.9123 16.0117 12.1073 16.055 12.324C16.107 12.5407 16.1243 12.792 16.107 13.078ZM13.416 5.109C13.8927 5.14367 14.2783 5.21733 14.573 5.33C14.8763 5.44267 15.106 5.57267 15.262 5.72C15.4267 5.86733 15.5263 6.02333 15.561 6.188C15.6043 6.35267 15.6 6.50433 15.548 6.643C15.496 6.773 15.4093 6.88567 15.288 6.981C15.1667 7.06767 15.0237 7.111 14.859 7.111C14.677 7.111 14.4863 7.046 14.287 6.916C14.261 6.76 14.2133 6.604 14.144 6.448C14.0747 6.292 13.9923 6.14033 13.897 5.993C13.8103 5.837 13.715 5.694 13.611 5.564C13.5157 5.42533 13.416 5.304 13.312 5.2L13.416 5.109ZM20.644 6.955H23.491V5.434H20.644V6.955ZM20.644 8.762H23.491V7.332H20.644V8.762ZM20.696 10.803C20.5487 11.0283 20.3797 11.2667 20.189 11.518C19.9983 11.7607 19.786 12.0033 19.552 12.246C19.3267 12.4887 19.0797 12.7183 18.811 12.935C18.5423 13.1517 18.2607 13.3467 17.966 13.52L17.836 13.377C18.0353 13.1343 18.2217 12.8613 18.395 12.558C18.577 12.2547 18.7417 11.947 18.889 11.635C19.0363 11.323 19.1663 11.0153 19.279 10.712C19.3917 10.4 19.4783 10.1183 19.539 9.867L21.164 10.621C21.138 10.6903 21.0903 10.7423 21.021 10.777C20.9517 10.8117 20.8433 10.8203 20.696 10.803ZM23.153 10.101C23.8983 10.387 24.4487 10.712 24.804 11.076C25.168 11.4313 25.3933 11.7693 25.48 12.09C25.5753 12.4107 25.558 12.6793 25.428 12.896C25.3067 13.1127 25.129 13.221 24.895 13.221C24.7043 13.221 24.518 13.1473 24.336 13C24.3013 12.766 24.2363 12.5233 24.141 12.272C24.0457 12.0207 23.9373 11.7737 23.816 11.531C23.6947 11.2797 23.5603 11.0413 23.413 10.816C23.2743 10.582 23.14 10.3697 23.01 10.179L23.153 10.101ZM31.343 1.976C31.8803 1.98467 32.3137 2.04533 32.643 2.158C32.981 2.262 33.2367 2.39633 33.41 2.561C33.5833 2.717 33.6873 2.89033 33.722 3.081C33.7567 3.263 33.7393 3.43633 33.67 3.601C33.6007 3.757 33.488 3.887 33.332 3.991C33.1847 4.095 33.0157 4.147 32.825 4.147C32.591 4.147 32.357 4.06033 32.123 3.887C32.1143 3.55767 32.0277 3.224 31.863 2.886C31.707 2.548 31.5033 2.27067 31.252 2.054L31.343 1.976ZM27.82 6.461C27.7507 6.513 27.6727 6.552 27.586 6.578C27.4993 6.59533 27.4083 6.604 27.313 6.604C27.1397 6.604 26.9707 6.56067 26.806 6.474C26.6413 6.37867 26.5243 6.23567 26.455 6.045C26.3857 5.77633 26.4117 5.54667 26.533 5.356C26.663 5.15667 26.8363 5.00067 27.053 4.888C27.1657 4.82733 27.2827 4.74933 27.404 4.654C27.5253 4.55 27.6337 4.433 27.729 4.303C27.8243 4.16433 27.9023 4.017 27.963 3.861C28.0237 3.705 28.0497 3.54467 28.041 3.38H28.21C28.314 3.64867 28.392 3.90867 28.444 4.16H36.387L37.206 3.341L38.61 4.68C38.558 4.74067 38.493 4.77967 38.415 4.797C38.3457 4.81433 38.246 4.82733 38.116 4.836C37.9947 4.94867 37.856 5.07 37.7 5.2C37.544 5.33 37.3793 5.45567 37.206 5.577C37.0413 5.69833 36.868 5.81533 36.686 5.928C36.5127 6.04067 36.3437 6.136 36.179 6.214L36.075 6.136C36.1443 5.91933 36.2137 5.66367 36.283 5.369C36.361 5.06567 36.4217 4.784 36.465 4.524H28.509C28.5697 5.018 28.5307 5.42967 28.392 5.759C28.2533 6.07967 28.0627 6.31367 27.82 6.461ZM33.254 13.676C33.254 13.7193 33.215 13.767 33.137 13.819C33.059 13.871 32.9593 13.923 32.838 13.975C32.7253 14.027 32.5953 14.0703 32.448 14.105C32.3007 14.1397 32.1533 14.157 32.006 14.157H31.72V9.581C31.122 10.4477 30.3853 11.219 29.51 11.895C28.6347 12.5623 27.6293 13.143 26.494 13.637L26.377 13.481C26.9057 13.1343 27.3997 12.7443 27.859 12.311C28.3183 11.869 28.7387 11.401 29.12 10.907C29.5013 10.413 29.8393 9.90167 30.134 9.373C30.4373 8.83567 30.6887 8.29833 30.888 7.761H26.975L26.871 7.384H31.72V4.797L33.683 4.979C33.6743 5.07433 33.6397 5.15233 33.579 5.213C33.5183 5.265 33.41 5.304 33.254 5.33V7.384H35.984L36.79 6.331C36.972 6.46967 37.1497 6.60833 37.323 6.747C37.4703 6.86833 37.6263 7.00267 37.791 7.15C37.9643 7.28867 38.1203 7.423 38.259 7.553C38.2243 7.69167 38.1073 7.761 37.908 7.761H33.436C33.722 8.255 34.06 8.723 34.45 9.165C34.84 9.607 35.2603 10.0143 35.711 10.387C36.1703 10.751 36.6513 11.076 37.154 11.362C37.6567 11.648 38.155 11.882 38.649 12.064L38.61 12.22C38.324 12.272 38.0683 12.4063 37.843 12.623C37.6263 12.8397 37.466 13.1257 37.362 13.481C36.4087 12.909 35.5897 12.1637 34.905 11.245C34.229 10.3263 33.6787 9.243 33.254 7.995V13.676ZM42.289 13.715C42.289 13.741 42.25 13.78 42.172 13.832C42.1027 13.884 42.0073 13.9317 41.886 13.975C41.7733 14.027 41.6433 14.0703 41.496 14.105C41.3573 14.1397 41.2143 14.157 41.067 14.157H40.781V7.449C40.3737 7.943 39.923 8.398 39.429 8.814L39.273 8.71C39.5157 8.294 39.754 7.826 39.988 7.306C40.222 6.77733 40.443 6.22267 40.651 5.642C40.859 5.05267 41.0497 4.446 41.223 3.822C41.3963 3.198 41.5393 2.574 41.652 1.95L43.797 2.587C43.745 2.769 43.5717 2.86 43.277 2.86C42.939 3.80467 42.5447 4.68867 42.094 5.512L42.705 5.733C42.653 5.85433 42.5143 5.941 42.289 5.993V13.715ZM47.697 13.676C47.697 13.7193 47.658 13.767 47.58 13.819C47.5107 13.8797 47.4153 13.9403 47.294 14.001C47.1813 14.0617 47.0513 14.1093 46.904 14.144C46.7567 14.1873 46.6093 14.209 46.462 14.209H46.176V11.505H44.33L44.239 11.141H46.176V7.605C45.76 8.44567 45.2487 9.22567 44.642 9.945C44.044 10.6557 43.3507 11.297 42.562 11.869L42.419 11.726C42.7917 11.3013 43.134 10.8333 43.446 10.322C43.758 9.802 44.0397 9.26033 44.291 8.697C44.551 8.13367 44.7763 7.55733 44.967 6.968C45.1577 6.37 45.318 5.78067 45.448 5.2H42.926L42.822 4.823H46.176V1.989L48.178 2.184C48.1607 2.27933 48.1173 2.36167 48.048 2.431C47.9873 2.49167 47.8703 2.535 47.697 2.561V4.823H49.205L49.985 3.718C50.1583 3.86533 50.3317 4.01267 50.505 4.16C50.6523 4.28133 50.8083 4.42 50.973 4.576C51.1377 4.72333 51.285 4.862 51.415 4.992C51.3803 5.13067 51.2633 5.2 51.064 5.2H47.957C48.1563 5.772 48.3947 6.318 48.672 6.838C48.9493 7.358 49.2527 7.839 49.582 8.281C49.92 8.723 50.2753 9.12167 50.648 9.477C51.0293 9.82367 51.4193 10.1183 51.818 10.361L51.766 10.491C51.4887 10.5517 51.2373 10.6903 51.012 10.907C50.7867 11.115 50.6133 11.401 50.492 11.765C49.79 11.037 49.2137 10.127 48.763 9.035C48.321 7.93433 47.9743 6.656 47.723 5.2H47.697V11.141H47.957L48.646 10.114C48.7933 10.2527 48.9407 10.3913 49.088 10.53C49.218 10.6513 49.3523 10.7813 49.491 10.92C49.6297 11.05 49.7553 11.1757 49.868 11.297C49.8333 11.4357 49.7163 11.505 49.517 11.505H47.697V13.676Z" fill="#212930"/>
</svg>
