<svg width="52" height="16" viewBox="0 0 52 16" fill="none" xmlns="http://www.w3.org/2000/svg">
<path d="M10.972 2.691V8.515H1.924V2.691H10.972ZM6.942 5.187H10.023V3.549H6.942V5.187ZM2.834 5.187H5.993V3.549H2.834V5.187ZM6.942 7.657H10.023V6.006H6.942V7.657ZM2.834 7.657H5.993V6.006H2.834V7.657ZM5.603 8.775C5.84567 8.88767 6.09267 9.022 6.344 9.178C6.604 9.32533 6.85533 9.48133 7.098 9.646C7.34067 9.81067 7.566 9.97533 7.774 10.14C7.99067 10.3047 8.17267 10.4607 8.32 10.608L7.657 11.258C7.51833 11.1107 7.345 10.9547 7.137 10.79C6.929 10.6253 6.70367 10.4607 6.461 10.296C6.21833 10.1227 5.967 9.958 5.707 9.802C5.45567 9.63733 5.20867 9.49 4.966 9.36L5.603 8.775ZM10.478 9.633C10.6687 9.87567 10.855 10.1357 11.037 10.413C11.2277 10.6903 11.401 10.972 11.557 11.258C11.7217 11.5353 11.869 11.8083 11.999 12.077C12.129 12.337 12.233 12.5797 12.311 12.805L11.375 13.221C11.3143 13.0043 11.219 12.7617 11.089 12.493C10.9677 12.2243 10.829 11.947 10.673 11.661C10.517 11.375 10.348 11.089 10.166 10.803C9.984 10.5083 9.802 10.2353 9.62 9.984L10.478 9.633ZM2.951 10.075C2.873 10.3437 2.78633 10.6253 2.691 10.92C2.59567 11.2147 2.48733 11.505 2.366 11.791C2.25333 12.077 2.12767 12.3543 1.989 12.623C1.85033 12.883 1.703 13.117 1.547 13.325L0.676 12.87C0.832 12.6707 0.979333 12.4453 1.118 12.194C1.26533 11.934 1.39533 11.6697 1.508 11.401C1.62933 11.1237 1.73767 10.8463 1.833 10.569C1.937 10.2917 2.02367 10.0273 2.093 9.776L2.951 10.075ZM9.763 11.531C9.72833 11.973 9.68067 12.337 9.62 12.623C9.55933 12.9003 9.46833 13.1213 9.347 13.286C9.22567 13.4507 9.06533 13.5633 8.866 13.624C8.67533 13.6933 8.43267 13.728 8.138 13.728H5.525C5.17833 13.728 4.89233 13.7063 4.667 13.663C4.44167 13.6283 4.25967 13.559 4.121 13.455C3.991 13.3597 3.9 13.2253 3.848 13.052C3.796 12.8873 3.77 12.675 3.77 12.415V9.841H4.732V12.402C4.732 12.584 4.784 12.701 4.888 12.753C4.992 12.805 5.226 12.831 5.59 12.831H8.06C8.216 12.831 8.34167 12.8137 8.437 12.779C8.541 12.7357 8.619 12.6577 8.671 12.545C8.73167 12.4237 8.775 12.2547 8.801 12.038C8.827 11.8213 8.84867 11.531 8.866 11.167C8.97867 11.245 9.12167 11.3187 9.295 11.388C9.46833 11.4487 9.62433 11.4963 9.763 11.531ZM14.729 2.275C14.9023 2.379 15.0887 2.49167 15.288 2.613C15.496 2.72567 15.6953 2.847 15.886 2.977C16.0853 3.09833 16.2717 3.21967 16.445 3.341C16.627 3.45367 16.7787 3.55767 16.9 3.653L16.328 4.42C16.2067 4.32467 16.0593 4.21633 15.886 4.095C15.7127 3.965 15.5263 3.835 15.327 3.705C15.1363 3.575 14.937 3.445 14.729 3.315C14.5297 3.17633 14.3433 3.05067 14.17 2.938L14.729 2.275ZM18.356 6.305C18.356 6.86833 18.3343 7.48367 18.291 8.151C18.2563 8.80967 18.1783 9.48133 18.057 10.166C17.9357 10.842 17.758 11.505 17.524 12.155C17.29 12.805 16.9823 13.403 16.601 13.949C16.523 13.8623 16.3973 13.767 16.224 13.663C16.0593 13.559 15.9207 13.4853 15.808 13.442C16.172 12.922 16.458 12.3587 16.666 11.752C16.8827 11.1453 17.043 10.5257 17.147 9.893C17.2597 9.26033 17.329 8.63633 17.355 8.021C17.3897 7.40567 17.407 6.83367 17.407 6.305V2.756H25.311V3.64H18.356V6.305ZM21.905 13.858C21.7317 13.9273 21.502 13.9663 21.216 13.975C20.9387 13.9923 20.579 13.9967 20.137 13.988C20.1197 13.8667 20.085 13.728 20.033 13.572C19.981 13.416 19.9247 13.2773 19.864 13.156C20.176 13.1733 20.4577 13.1777 20.709 13.169C20.969 13.169 21.1337 13.169 21.203 13.169C21.3503 13.1603 21.424 13.0953 21.424 12.974V9.594H19.097V5.135H21.06C21.1293 4.927 21.1987 4.70167 21.268 4.459C21.3373 4.21633 21.3937 4.004 21.437 3.822L22.516 4.043C22.4207 4.23367 22.3297 4.42 22.243 4.602C22.1563 4.784 22.0697 4.96167 21.983 5.135H24.817V9.594H22.347V12.987C22.347 13.2297 22.3167 13.416 22.256 13.546C22.204 13.6847 22.087 13.7887 21.905 13.858ZM14.092 5.746C14.2653 5.84133 14.4517 5.94533 14.651 6.058C14.859 6.17067 15.0627 6.28767 15.262 6.409C15.4613 6.52167 15.6477 6.63433 15.821 6.747C16.003 6.851 16.159 6.94633 16.289 7.033L15.717 7.813C15.5957 7.71767 15.444 7.61367 15.262 7.501C15.0887 7.37967 14.9023 7.25833 14.703 7.137C14.5123 7.007 14.313 6.88133 14.105 6.76C13.9057 6.63867 13.715 6.526 13.533 6.422L14.092 5.746ZM19.968 7.007H23.92V5.876H19.968V7.007ZM19.968 8.853H23.92V7.709H19.968V8.853ZM16.536 9.646C16.406 9.984 16.263 10.335 16.107 10.699C15.951 11.063 15.7907 11.427 15.626 11.791C15.47 12.1463 15.3097 12.4973 15.145 12.844C14.9803 13.1907 14.82 13.5113 14.664 13.806L13.806 13.273C13.9533 13.0217 14.1093 12.7313 14.274 12.402C14.4387 12.0727 14.6077 11.726 14.781 11.362C14.9543 10.998 15.1277 10.6253 15.301 10.244C15.4743 9.854 15.6347 9.477 15.782 9.113L16.536 9.646ZM24.05 10.218C24.18 10.4173 24.3143 10.6297 24.453 10.855C24.5917 11.0803 24.726 11.3057 24.856 11.531C24.9947 11.7477 25.1203 11.96 25.233 12.168C25.3543 12.3673 25.454 12.545 25.532 12.701L24.648 13.091C24.5787 12.9263 24.4877 12.74 24.375 12.532C24.2623 12.324 24.141 12.1073 24.011 11.882C23.881 11.6567 23.7467 11.4313 23.608 11.206C23.478 10.972 23.348 10.751 23.218 10.543L24.05 10.218ZM20.423 10.556C20.319 10.79 20.1977 11.0327 20.059 11.284C19.929 11.5267 19.7903 11.765 19.643 11.999C19.5043 12.2243 19.3613 12.441 19.214 12.649C19.0667 12.857 18.9237 13.0477 18.785 13.221C18.6897 13.1517 18.564 13.0693 18.408 12.974C18.2607 12.8787 18.1263 12.7963 18.005 12.727C18.3083 12.415 18.5943 12.0467 18.863 11.622C19.1317 11.1887 19.3613 10.7553 19.552 10.322L20.423 10.556ZM38.246 10.088V10.946H26.767V10.088H32.006V8.918H27.833V8.125H32.006V7.059H28.054V2.613H36.907V7.059H32.955V8.125H37.154V8.918H32.955V10.088H38.246ZM28.977 6.24H32.006V3.432H28.977V6.24ZM32.955 6.24H35.945V3.432H32.955V6.24ZM35.295 4.03C35.113 4.38533 34.9223 4.74933 34.723 5.122C34.5237 5.486 34.3373 5.798 34.164 6.058L33.54 5.798C33.6267 5.65933 33.7133 5.50333 33.8 5.33C33.8953 5.15667 33.9863 4.979 34.073 4.797C34.1683 4.60633 34.255 4.42433 34.333 4.251C34.4197 4.069 34.489 3.9 34.541 3.744L35.295 4.03ZM30.342 3.757C30.4373 3.90433 30.5283 4.06467 30.615 4.238C30.7103 4.40267 30.7927 4.57167 30.862 4.745C30.94 4.90967 31.005 5.07 31.057 5.226C31.1177 5.382 31.161 5.525 31.187 5.655L30.511 5.915C30.485 5.785 30.4417 5.642 30.381 5.486C30.329 5.32133 30.2683 5.15667 30.199 4.992C30.1297 4.81867 30.0517 4.64533 29.965 4.472C29.8783 4.29867 29.7917 4.134 29.705 3.978L30.342 3.757ZM29.146 11.687C28.9813 12.103 28.7733 12.5277 28.522 12.961C28.2707 13.3943 27.989 13.7583 27.677 14.053L26.78 13.624C27.0747 13.3727 27.3477 13.052 27.599 12.662C27.859 12.2633 28.067 11.8647 28.223 11.466L29.146 11.687ZM36.595 11.466C36.751 11.622 36.9113 11.7953 37.076 11.986C37.2493 12.1767 37.4097 12.3717 37.557 12.571C37.713 12.7617 37.856 12.948 37.986 13.13C38.116 13.3207 38.2243 13.494 38.311 13.65L37.375 14.014C37.297 13.8667 37.1973 13.6977 37.076 13.507C36.9547 13.3163 36.816 13.1213 36.66 12.922C36.5127 12.7227 36.3567 12.5233 36.192 12.324C36.036 12.1247 35.88 11.9383 35.724 11.765L36.595 11.466ZM33.995 11.635C34.1423 11.9643 34.2853 12.324 34.424 12.714C34.5713 13.0953 34.6753 13.4203 34.736 13.689L33.787 13.923C33.761 13.7843 33.722 13.6283 33.67 13.455C33.618 13.2817 33.5617 13.104 33.501 12.922C33.4403 12.7313 33.3753 12.5407 33.306 12.35C33.2367 12.1593 33.1673 11.9817 33.098 11.817L33.995 11.635ZM31.33 11.726C31.3733 11.8907 31.4123 12.0683 31.447 12.259C31.4817 12.4497 31.512 12.636 31.538 12.818C31.564 13 31.5813 13.1733 31.59 13.338C31.6073 13.5113 31.616 13.663 31.616 13.793L30.667 13.923C30.667 13.6543 30.6453 13.3207 30.602 12.922C30.5587 12.5233 30.5023 12.1463 30.433 11.791L31.33 11.726ZM43.199 2.444C43.043 2.912 42.8653 3.37567 42.666 3.835C42.4753 4.29433 42.2673 4.745 42.042 5.187V13.975H41.119V6.786C40.7723 7.32333 40.404 7.82167 40.014 8.281C39.988 8.229 39.949 8.15967 39.897 8.073C39.8537 7.98633 39.806 7.89967 39.754 7.813C39.702 7.71767 39.65 7.62667 39.598 7.54C39.546 7.45333 39.4983 7.384 39.455 7.332C39.741 7.02 40.0183 6.669 40.287 6.279C40.5643 5.88033 40.8243 5.46 41.067 5.018C41.3097 4.576 41.535 4.11667 41.743 3.64C41.951 3.15467 42.1373 2.665 42.302 2.171L43.199 2.444ZM47.476 11.596V13.923H46.54V11.596H44.421V10.712H46.54V6.292C46.332 6.85533 46.098 7.40567 45.838 7.943C45.5867 8.48033 45.3137 8.99167 45.019 9.477C44.7243 9.96233 44.4123 10.413 44.083 10.829C43.7623 11.245 43.433 11.609 43.095 11.921C43.0083 11.8083 42.8957 11.6827 42.757 11.544C42.627 11.3967 42.5057 11.2797 42.393 11.193C42.7483 10.907 43.095 10.5647 43.433 10.166C43.7797 9.75867 44.1047 9.31667 44.408 8.84C44.7113 8.35467 44.993 7.84333 45.253 7.306C45.5217 6.76 45.7557 6.214 45.955 5.668H42.9V4.732H46.54V2.171H47.476V4.732H51.35V5.668H48.1C48.2907 6.214 48.516 6.75133 48.776 7.28C49.036 7.80867 49.3177 8.31133 49.621 8.788C49.9243 9.26467 50.245 9.70233 50.583 10.101C50.921 10.4997 51.2633 10.842 51.61 11.128C51.4887 11.2147 51.3587 11.3317 51.22 11.479C51.0813 11.6263 50.9687 11.765 50.882 11.895C50.544 11.583 50.2103 11.219 49.881 10.803C49.5603 10.3783 49.2527 9.919 48.958 9.425C48.672 8.931 48.4033 8.411 48.152 7.865C47.9007 7.319 47.6753 6.76433 47.476 6.201V10.712H49.569V11.596H47.476Z" fill="#212930"/>
</svg>
