<?xml version="1.0" encoding="utf-8"?>
<!-- Generator: Adobe Illustrator 25.0.0, SVG Export Plug-In . SVG Version: 6.00 Build 0)  -->
<svg version="1.1" id="图层_1" xmlns="http://www.w3.org/2000/svg" xmlns:xlink="http://www.w3.org/1999/xlink" x="0px" y="0px"
	 viewBox="0 0 25 14" style="enable-background:new 0 0 25 14;" xml:space="preserve">
<style type="text/css">
	.st0{fill:url(#SVGID_1_);}
	.st1{fill-rule:evenodd;clip-rule:evenodd;fill:#985A10;}
</style>
<linearGradient id="SVGID_1_" gradientUnits="userSpaceOnUse" x1="25.4523" y1="11.4781" x2="7.366266e-02" y2="4.6632" gradientTransform="matrix(1 0 0 -1 0 15)">
	<stop  offset="0" style="stop-color:#FFC988"/>
	<stop  offset="1" style="stop-color:#FFE4C2"/>
</linearGradient>
<path class="st0" d="M1.8,0h21.5c1,0,1.8,0.8,1.8,1.8v10.5c0,1-0.8,1.8-1.8,1.8H1.8c-1,0-1.8-0.8-1.8-1.8V1.8C0,0.8,0.8,0,1.8,0z"/>
<path class="st1" d="M5.9,3.4H4.4l1.9,7.3h1.4l4-7.3h-1.5L7.2,9L5.9,3.4z"/>
<path class="st1" d="M13.8,3.4h-1.4l-1,7.3h1.4L13.8,3.4z"/>
<path class="st1" d="M18.4,3.4h-3l-1,7.3h1.4l0.3-2.1h1.5c0.9,0,1.7-0.2,2.3-0.7c0.6-0.5,0.9-1.1,1-1.9c0.1-0.8-0.1-1.4-0.5-1.9
	C20,3.6,19.3,3.4,18.4,3.4z M17.8,7.3h-1.5l0.4-2.6h1.5c0.5,0,0.9,0.1,1.2,0.3c0.2,0.2,0.3,0.5,0.3,1c-0.1,0.5-0.3,0.8-0.6,1
	C18.8,7.2,18.4,7.3,17.8,7.3z"/>
</svg>
